<svg width="94" height="94" viewBox="0 0 94 94" fill="none" xmlns="http://www.w3.org/2000/svg">
<path fill-rule="evenodd" clip-rule="evenodd" d="M78.3333 3.91669C84.8229 3.91669 90.0833 9.17736 90.0833 15.6667V78.3334C90.0833 84.8229 84.8229 90.0834 78.3333 90.0834H15.6667C9.17733 90.0834 3.91666 84.8229 3.91666 78.3334V15.6667C3.91666 9.17736 9.17733 3.91669 15.6667 3.91669H78.3333ZM78.3333 11.75C80.4965 11.75 82.25 13.5036 82.25 15.6667V78.3334C82.25 80.4965 80.4965 82.25 78.3333 82.25H58.75V54.833H66.8818C68.5675 54.833 70.0641 53.7543 70.5975 52.1548L72.3326 46.9495C72.9667 45.0472 71.5508 43.083 69.5459 43.083H58.75V35.2497C58.75 33.2914 60.7083 31.333 62.6667 31.333H70.5C72.6632 31.333 74.4167 29.5795 74.4167 27.4164V24.7296C74.4167 23.4644 73.6087 22.3301 72.3851 22.0073C67.2511 20.6524 62.6667 20.6524 62.6667 20.6524C52.875 20.6524 47 27.4164 47 33.2914V43.083H39.1667C37.0036 43.083 35.25 44.8365 35.25 46.9996V50.9163C35.25 53.0795 37.0035 54.833 39.1667 54.833H47V82.25H15.6667C13.5036 82.25 11.75 80.4965 11.75 78.3334V15.6667C11.75 13.5036 13.5036 11.75 15.6667 11.75H78.3333Z" fill="#FFF9F9"/>
</svg>
