<svg width="155" height="38" viewBox="0 0 155 38" fill="none" xmlns="http://www.w3.org/2000/svg">
<path d="M139.771 37L145.737 0.636368H151.419L145.453 37H139.771ZM123.49 27.9801L124.431 22.2983H152.84L151.899 27.9801H123.49ZM126.987 37L132.953 0.636368H138.635L132.669 37H126.987ZM125.567 15.3381L126.526 9.65626H154.935L153.976 15.3381H125.567Z" fill="black"/>
<path d="M102.453 21.233V37H94.8895V9.72727H102.098V14.5391H102.418C103.022 12.9529 104.034 11.6982 105.454 10.7749C106.875 9.83973 108.597 9.37216 110.621 9.37216C112.515 9.37216 114.166 9.78646 115.575 10.6151C116.984 11.4437 118.078 12.6274 118.86 14.1662C119.641 15.6932 120.032 17.5161 120.032 19.6349V37H112.468V20.9844C112.479 19.3153 112.053 18.0133 111.189 17.0781C110.325 16.1312 109.136 15.6577 107.62 15.6577C106.602 15.6577 105.703 15.8767 104.921 16.3146C104.152 16.7526 103.548 17.3918 103.11 18.2322C102.684 19.0608 102.465 20.0611 102.453 21.233Z" fill="black"/>
<path d="M73.6626 37.5149C71.9226 37.5149 70.3719 37.2131 69.0106 36.6094C67.6494 35.9938 66.5722 35.0883 65.7791 33.8928C64.9979 32.6854 64.6072 31.1821 64.6072 29.3828C64.6072 27.8677 64.8854 26.5952 65.4418 25.5653C65.9981 24.5355 66.7557 23.7069 67.7145 23.0795C68.6733 22.4522 69.7623 21.9787 70.9815 21.6591C72.2126 21.3395 73.5028 21.1146 74.8523 20.9844C76.4384 20.8187 77.7168 20.6648 78.6875 20.5227C79.6581 20.3688 80.3624 20.1439 80.8004 19.848C81.2384 19.5521 81.4574 19.1141 81.4574 18.5341V18.4276C81.4574 17.303 81.1023 16.433 80.392 15.8175C79.6936 15.2019 78.6993 14.8942 77.4091 14.8942C76.0478 14.8942 74.9647 15.196 74.1598 15.7997C73.3549 16.3916 72.8222 17.1373 72.5618 18.0369L65.566 17.4688C65.9212 15.8116 66.6196 14.3793 67.6612 13.1719C68.7029 11.9527 70.0464 11.0175 71.6918 10.3665C73.349 9.7036 75.2666 9.37216 77.4446 9.37216C78.9597 9.37216 80.4098 9.54972 81.7947 9.90483C83.1915 10.2599 84.4285 10.8104 85.5057 11.5561C86.5947 12.3018 87.4529 13.2607 88.0802 14.4325C88.7076 15.5926 89.0213 16.9834 89.0213 18.6051V37H81.848V33.218H81.6349C81.197 34.0703 80.611 34.822 79.8771 35.473C79.1432 36.1122 78.2614 36.6153 77.2315 36.9822C76.2017 37.3374 75.0121 37.5149 73.6626 37.5149ZM75.8288 32.2947C76.9415 32.2947 77.924 32.0758 78.7763 31.6378C79.6285 31.188 80.2973 30.5843 80.7827 29.8267C81.268 29.0691 81.5107 28.2109 81.5107 27.2521V24.358C81.2739 24.5118 80.9484 24.6539 80.5341 24.7841C80.1316 24.9025 79.6759 25.0149 79.1669 25.1215C78.6579 25.2161 78.1489 25.3049 77.6399 25.3878C77.1309 25.4588 76.6693 25.5239 76.255 25.5831C75.3672 25.7133 74.5918 25.9205 73.929 26.2045C73.2661 26.4886 72.7512 26.8733 72.3842 27.3587C72.0173 27.8322 71.8338 28.424 71.8338 29.1342C71.8338 30.1641 72.2067 30.9512 72.9524 31.4957C73.71 32.0284 74.6688 32.2947 75.8288 32.2947Z" fill="black"/>
<path d="M42.3461 21.233V37H34.7822V9.72727H41.991V14.5391H42.3106C42.9143 12.9529 43.9263 11.6982 45.3468 10.7749C46.7672 9.83973 48.4896 9.37216 50.5137 9.37216C52.4076 9.37216 54.0589 9.78646 55.4675 10.6151C56.8762 11.4437 57.9711 12.6274 58.7523 14.1662C59.5336 15.6932 59.9242 17.5161 59.9242 19.6349V37H52.3603V20.9844C52.3721 19.3153 51.946 18.0133 51.0819 17.0781C50.2178 16.1312 49.0281 15.6577 47.513 15.6577C46.495 15.6577 45.5954 15.8767 44.8141 16.3146C44.0447 16.7526 43.441 17.3918 43.003 18.2322C42.5769 19.0608 42.3579 20.0611 42.3461 21.233Z" fill="black"/>
<path d="M21.8871 11.0945C21.745 9.66217 21.1354 8.54948 20.0583 7.75639C18.9811 6.96331 17.5192 6.56676 15.6726 6.56676C14.4179 6.56676 13.3584 6.74432 12.4943 7.09943C11.6302 7.44271 10.9673 7.92212 10.5057 8.53764C10.0559 9.15318 9.83098 9.85157 9.83098 10.6328C9.8073 11.2839 9.94343 11.852 10.2394 12.3374C10.5471 12.8227 10.9673 13.2429 11.5 13.598C12.0327 13.9413 12.6482 14.2431 13.3466 14.5036C14.045 14.7521 14.7907 14.9652 15.5838 15.1428L18.8509 15.924C20.437 16.2791 21.893 16.7526 23.2188 17.3445C24.5445 17.9363 25.6927 18.6643 26.6634 19.5284C27.634 20.3925 28.3857 21.4105 28.9183 22.5824C29.4628 23.7543 29.741 25.0978 29.7529 26.6129C29.741 28.8383 29.1728 30.7678 28.0483 32.4013C26.9356 34.023 25.3258 35.2836 23.2188 36.1832C21.1236 37.071 18.5964 37.5149 15.6371 37.5149C12.7015 37.5149 10.1447 37.0651 7.96663 36.1655C5.80044 35.2659 4.10773 33.9342 2.88851 32.1705C1.68112 30.3949 1.04783 28.1991 0.988647 25.5831H8.42828C8.51114 26.8023 8.86033 27.8203 9.47586 28.6371C10.1032 29.442 10.9377 30.0516 11.9794 30.4659C13.0329 30.8684 14.2226 31.0696 15.5483 31.0696C16.8504 31.0696 17.9808 30.8802 18.9396 30.5014C19.9103 30.1226 20.6619 29.5959 21.1946 28.9212C21.7273 28.2465 21.9936 27.4711 21.9936 26.5952C21.9936 25.7784 21.751 25.0919 21.2656 24.5355C20.7922 23.9792 20.0938 23.5057 19.1705 23.1151C18.259 22.7244 17.1404 22.3693 15.8146 22.0497L11.8551 21.0554C8.78931 20.3097 6.36862 19.1437 4.59305 17.5575C2.81748 15.9714 1.93562 13.8348 1.94745 11.1477C1.93562 8.94602 2.52155 7.02249 3.70527 5.37713C4.90082 3.73177 6.54026 2.44745 8.62359 1.52415C10.7069 0.600854 13.0743 0.139206 15.7259 0.139206C18.4247 0.139206 20.7803 0.600854 22.7926 1.52415C24.8168 2.44745 26.3911 3.73177 27.5156 5.37713C28.6402 7.02249 29.2202 8.92827 29.2557 11.0945H21.8871Z" fill="black"/>
</svg>
