<svg width="99" height="99" viewBox="0 0 99 99" fill="none" xmlns="http://www.w3.org/2000/svg">
<path fill-rule="evenodd" clip-rule="evenodd" d="M31.1355 89.099C68.4931 89.099 88.9268 58.6246 88.9268 32.2006C88.9268 31.3331 88.9267 30.4722 88.8673 29.6144C92.8422 26.7878 96.2725 23.2782 99 19.2624C95.2974 20.8804 91.3621 21.9415 87.3378 22.4094C91.575 19.9093 94.7479 15.9815 96.2676 11.3468C92.2779 13.6763 87.9169 15.3204 83.3679 16.2025C75.6756 8.1515 62.8106 7.76142 54.6282 15.3348C49.3564 20.218 47.1141 27.4989 48.7525 34.4436C32.4225 33.6346 17.2062 26.0418 6.8904 13.5511C1.49985 22.6888 4.257 34.3743 13.1819 40.2419C9.9495 40.1493 6.78645 39.2925 3.96 37.7428V37.9965C3.96495 47.5145 10.7811 55.7099 20.2554 57.5959C17.2656 58.4001 14.1273 58.5167 11.088 57.9367C13.7461 66.0852 21.3741 71.6664 30.0613 71.8272C22.869 77.3927 13.9838 80.4148 4.83615 80.4051C3.22245 80.4002 1.60875 80.3075 0 80.1175C9.29115 85.9852 20.097 89.0991 31.1355 89.0845" fill="#FFF3F3"/>
</svg>
