<svg width="117" height="117" viewBox="0 0 117 117" fill="none" xmlns="http://www.w3.org/2000/svg">
<g clip-path="url(#clip0_5_18)">
<path fill-rule="evenodd" clip-rule="evenodd" d="M46.7324 73.6288V40.7996C58.3868 46.2836 67.413 51.5812 78.0885 57.2928C69.2836 62.1758 58.3868 67.6547 46.7324 73.6288ZM111.682 24.4722C109.672 21.8236 106.246 19.7618 102.598 19.0792C91.8758 17.0431 24.9853 17.0373 14.269 19.0792C11.3438 19.6276 8.73894 20.9531 6.5013 23.0126C-2.92712 31.7636 0.0272972 78.6925 2.29991 86.2942C3.25557 89.5846 4.49099 91.9577 6.04685 93.5153C8.05141 95.5747 10.796 96.9927 13.9485 97.6286C22.7767 99.4547 68.258 100.476 102.411 97.9028C105.558 97.3545 108.343 95.8908 110.54 93.7439C119.258 85.0278 118.663 35.4635 111.682 24.4722Z" fill="#FFF5F5"/>
</g>
<defs>
<clipPath id="clip0_5_18">
<rect width="117" height="117" fill="white"/>
</clipPath>
</defs>
</svg>
